<svg xmlns="http://www.w3.org/2000/svg" width="256" height="256" viewBox="0 0 100 100"><rect width="100" height="100" rx="20" fill="#212529"></rect><path fill="#f8a81d" d="M47.27 60.29L37.92 60.29L37.92 82.03Q37.09 82.34 35.72 82.60Q34.36 82.86 32.67 82.86L32.67 82.86Q29.42 82.86 28.00 81.66Q26.59 80.45 26.59 77.61L26.59 77.61L26.59 23.44Q26.59 21.65 27.58 20.65Q28.58 19.66 30.37 19.13L30.37 19.13Q33.62 17.98 38.14 17.56Q42.65 17.14 46.64 17.14L46.64 17.14Q60.29 17.14 66.85 22.91Q73.41 28.69 73.41 38.55L73.41 38.55Q73.41 48.42 66.85 54.36Q60.29 60.29 47.27 60.29L47.27 60.29ZM37.82 51.16L46.53 51.16Q53.78 51.16 57.93 48.01Q62.08 44.86 62.08 38.55L62.08 38.55Q62.08 32.26 58.14 29.32Q54.20 26.38 46.85 26.38L46.85 26.38Q44.44 26.38 42.07 26.59Q39.71 26.80 37.82 27.11L37.82 27.11L37.82 51.16Z"></path></svg>